<svg xmlns="http://www.w3.org/2000/svg" xmlns:xlink="http://www.w3.org/1999/xlink" xmlns:a="http://ns.adobe.com/AdobeSVGViewerExtensions/3.0/" version="1.1" x="0px" y="0px" viewBox="0 0 100 70" xml:space="preserve">
<style>.style0{fill:	#876969;}</style>
<g>
	<g>
	<path d="M55.214 26.75c0.103-0.128 0.7 0.1 1.5 0.857c0.379 0.4 0.8 0.9 1.2 1.7 c0.363 0.7 0.7 1.6 0.7 2.8c0.01 0.576-0.197 1.306-0.701 1.937c-0.54 0.675-1.405 0.927-2.146 1 c-0.726 0.03-1.438-0.114-2.04-0.277c-0.562-0.166-1.139-0.337-1.73-0.512c-1.171-0.369-2.334-0.711-3.507-0.914 c-0.288-0.036-0.579-0.073-0.872-0.111c-0.284 0.002-0.57 0.003-0.858 0.005c-0.292-0.025-0.565 0.062-0.849 0.1 c-0.28 0.047-0.543 0.064-0.953 0.246c-0.375 0.141-0.746 0.28-1.116 0.419c-0.627 0.229-1.268 0.396-1.796 0.4 c-0.531-0.02-0.947-0.171-1.322-0.479c-0.404-0.339-0.577-0.828-0.6-1.181c0.145-0.502 0.393-1.067 0.581-1.586 c0.192-0.499 0.438-1.156 0.52-1.323c0.234-0.55 0.488-1.08 0.663-1.627c0.783-2.159 1.181-4.235 1.37-6.002 c0.382-3.547 0.141-5.813 0.517-5.893c0.348-0.096 1.3 2.1 1.4 5.977c0.05 1.913-0.171 4.228-0.912 6.7 c-0.165 0.625-0.417 1.239-0.659 1.873c-0.176 0.45-0.111 0.3-0.128 0.354l-0.004 0.042c0.006 0 0.032-0.001 0.036-0.008 c0.006-0.004-0.002-0.004 0.01-0.009c0.284-0.103 0.569-0.205 0.856-0.309c0.238-0.115 0.672-0.181 1.078-0.247 c0.403-0.059 0.804-0.155 1.201-0.129c0.396 0 0.794-0.002 1.2 0.02c0.375 0.1 0.7 0.1 1.1 0.2 c1.434 0.3 2.7 0.7 3.8 1.162c0.564 0.2 1.1 0.4 1.7 0.606c0.502 0.2 0.9 0.3 1.3 0.3 c0.316-0.021 0.551-0.033 0.672-0.163c0.126-0.137 0.304-0.353 0.335-0.702c0.123-0.657-0.014-1.42-0.194-2.04 c-0.172-0.64-0.437-1.164-0.644-1.606C55.421 27.4 55.1 26.9 55.2 26.75z" class="style0"/>
</g>
<path d="M53.311 56.771c0 0 0.009-0.217 0.024-0.598c0.02-0.386 0.032-0.914 0.073-1.588 c0.036-0.355 0.075-0.741 0.116-1.149c0.052-0.402 0.068-0.835 0.162-1.254c0.079-0.421 0.161-0.856 0.245-1.299 c0.067-0.439 0.218-0.881 0.327-1.318c0.124-0.438 0.222-0.875 0.39-1.294c0.151-0.417 0.301-0.827 0.445-1.224 c0.179-0.383 0.351-0.752 0.515-1.104c0.15-0.351 0.341-0.664 0.521-0.949c0.175-0.282 0.335-0.541 0.477-0.77 c0.171-0.211 0.319-0.394 0.441-0.544c0.241-0.294 0.379-0.463 0.379-0.463s-0.084 0.201-0.232 0.6 c-0.071 0.173-0.159 0.382-0.259 0.622c-0.069 0.252-0.146 0.535-0.23 0.846c-0.087 0.305-0.174 0.634-0.216 1 c-0.054 0.357-0.11 0.734-0.169 1.124c-0.023 0.394-0.048 0.8-0.073 1.213c-0.04 0.405-0.009 0.831-0.004 1.2 c0.02 0.418-0.002 0.8 0.1 1.236c0.042 0.4 0.1 0.8 0.1 1.189c0.025 0.4 0.1 0.7 0.2 1.1 c0.062 0.3 0.1 0.6 0.2 0.937c0.062 0.3 0.1 0.6 0.2 0.855c0.064 0.3 0.1 0.5 0.2 0.7 c0.093 0.4 0.1 0.6 0.1 0.581L53.311 56.771z" class="style0"/>
<g>
	<path d="M79.715 35.136c-0.067-0.041 0.025-0.416 0.576-0.776c0.271-0.17 0.684-0.328 1.168-0.291 c0.477 0 1 0.2 1.5 0.522c0.955 0.6 1.8 1.6 2.5 2.724c0.021 0 0 0 0.058-0.002 c-0.021 0 0.221-0.279 0.331-0.546c0.264-0.571 0.445-1.265 0.512-1.942c0.031-0.338 0.027-0.672-0.025-0.942 c-0.05-0.286-0.164-0.434-0.211-0.446c-0.032-0.051-0.272-0.037-0.504 0.044c-0.264 0.151-0.549 0.243-0.789 0.4 c-1.004 0.648-1.677 1.581-2.155 2.411c-0.901 1.715-1.18 2.972-1.398 2.924c-0.144-0.02-0.225-1.332 0.532-3.338 c0.415-0.975 1.097-2.146 2.318-3.032c0.29-0.234 0.659-0.39 1.003-0.587c0.412-0.148 0.946-0.33 1.582-0.036 c0.312 0.1 0.5 0.4 0.7 0.639c0.133 0.2 0.2 0.5 0.3 0.725c0.096 0.5 0.1 0.9 0.1 1.3 c-0.087 0.862-0.303 1.651-0.667 2.4c-0.216 0.372-0.34 0.73-0.944 1.144c-0.284 0.167-0.62 0.242-0.925 0.1 c-0.307-0.09-0.547-0.322-0.73-0.586c-0.711-1.178-1.351-2.088-2.068-2.669c-0.7-0.59-1.388-0.698-1.861-0.538 C80.033 35 79.8 35.2 79.7 35.136z" class="style0"/>
</g>
<g>
	<path d="M30.062 21.958c-0.096-0.053-0.059-0.5 0.558-0.978c0.306-0.228 0.819-0.415 1.404-0.338 c0.596 0.1 1.1 0.4 1.7 0.767c0.495 0.4 1 0.9 1.4 1.466c0.207 0.3 0.5 0.6 0.6 0.78l0.201 0.3 l0.1 0.154c0.023 0 0 0 0 0.025c0.024 0 0.055-0.015 0.058-0.04c0.003-0.012 0.003-0.022 0.003-0.029 c0.022-0.056 0.098-0.23 0.154-0.392c0.231-0.667 0.399-1.443 0.447-2.198c0.023-0.375 0.015-0.743-0.039-1.037 c-0.023-0.149-0.068-0.265-0.097-0.343c-0.017-0.032-0.011-0.028-0.014-0.034c0.013-0.005-0.016-0.046-0.309 0.1 c-0.269 0.167-0.557 0.285-0.795 0.511c-1.012 0.787-1.671 1.889-2.152 2.84c-0.918 1.955-1.261 3.353-1.555 3.3 c-0.217-0.03-0.371-1.489 0.307-3.797c0.375-1.127 0.983-2.521 2.278-3.687c0.299-0.309 0.707-0.538 1.102-0.788 c0.086-0.063 0.219-0.121 0.365-0.173c0.13-0.055 0.286-0.102 0.473-0.127c0.343-0.072 0.788-0.017 1.1 0.2 c0.362 0.2 0.6 0.5 0.8 0.839c0.149 0.3 0.2 0.6 0.3 0.849c0.104 0.5 0.1 1 0.1 1.5 c-0.066 0.974-0.272 1.867-0.602 2.733c-0.089 0.219-0.168 0.422-0.336 0.716c-0.193 0.336-0.41 0.664-0.678 0.9 c-0.486 0.475-1.262 0.456-1.727 0.081c-0.104-0.111-0.235-0.224-0.314-0.332l-0.18-0.318c-0.117-0.209-0.233-0.416-0.348-0.62 c-0.247-0.456-0.393-0.678-0.557-0.956c-0.32-0.542-0.665-0.991-0.997-1.365c-0.687-0.746-1.32-0.928-1.82-0.774 C30.453 21.8 30.2 22 30.1 21.958z" class="style0"/>
</g>
<g>
	<path d="M80.818 41.315c0.393 0 0.5 2.4 0.6 6.22c0.025 0.9 0.1 2 0.1 3.1 c0.004 0.3 0 0.6 0 0.838c0.023 0.3 0 0.6 0.1 0.917c0.039 0.6 0.1 1.3 0 1.972l-0.037 0.5 c-0.035 0.257-0.039 0.421-0.122 0.757c-0.111 0.618-0.354 1.193-0.719 1.603c-0.355 0.407-0.919 0.665-1.482 0.7 c-0.553-0.025-1.109-0.267-1.622-0.691c-0.548-0.465-0.892-0.893-1.106-1.162c-0.239-0.31-0.467-0.623-0.677-0.94 c-0.426-0.634-0.809-1.283-1.175-1.946c-2.846-5.314-4.491-10.404-5.51-14.146c-0.987-3.751-1.212-6.161-0.855-6.248 c0.371-0.093 1.2 2.1 2.7 5.642c1.45 3.5 3.4 8.4 6.1 13.44c0.341 0.6 0.7 1.2 1.1 1.8 c0.179 0.3 0.4 0.5 0.5 0.79c0.216 0.3 0.3 0.4 0.3 0.367c0.002 0 0 0.1 0.1 0 c0.013-0.007 0.023-0.019 0.034-0.035c0.001 0 0.027-0.134 0.039-0.192l0.051-0.413c0.057-0.566 0.077-1.153 0.08-1.729 c0-0.289-0.001-0.574-0.001-0.855c0.02-0.298 0.038-0.592 0.057-0.881c0.089-1.148 0.173-2.22 0.249-3.2 C79.922 43.6 80.5 41.3 80.8 41.315z" class="style0"/>
</g>
<ellipse transform="matrix(0.7402 -0.6723 0.6723 0.7402 -11.8152 50.7505)" cx="59.8" cy="40.7" rx="2.3" ry="1.1" class="style0"/>
<g>
	<path d="M27.324 60.523c-0.22-0.477 2.085-2.111 6.331-3.505c4.22-1.437 10.33-2.457 17.091-2.487 c6.761 0 12.9 1.1 17.1 2.487c4.244 1.4 6.5 3 6.3 3.505c-0.238 0.549-2.825-0.088-7.002-0.704 c-4.17-0.665-9.981-1.184-16.419-1.216c-6.438 0.032-12.249 0.551-16.419 1.216C30.149 60.4 27.6 61.1 27.3 60.523z" class="style0"/>
</g>
<path d="M69.505 31.707c-0.595-1.869-1.336-3.788-2.269-5.715c-0.464-0.965-0.973-1.933-1.537-2.903l-0.44-0.73 c-0.163-0.249-0.273-0.468-0.543-0.801c-0.369-0.444-0.741-0.891-1.117-1.342c-3.023-3.585-7.137-6.772-12.106-8.702 c-2.451-1.048-5.139-1.641-7.895-2.033c-2.773-0.323-5.642-0.273-8.521 0.129c-0.717 0.108-1.427 0.286-2.146 0.429l-1.078 0.2 L30.796 10.6c-0.702 0.231-1.42 0.428-2.115 0.695c-0.685 0.295-1.373 0.59-2.063 0.887c-2.716 1.329-5.285 2.858-7.651 5 c-0.733 0.687-1.401 1.427-2.018 2.202l1.485 1.402l-2.3-0.308c-1.1 1.583-1.964 3.304-2.603 5.089l2.052 1.2l-2.521 0.2 c-0.471 1.669-0.737 3.378-0.797 5.076l1.394 0.472l-1.393 0.427c0.003 0.312-0.006 0.6 0 0.9 c0.145 3 0.9 5.9 2.2 8.479c0.354 0.6 0.7 1.2 1.1 1.869c0.41 0.6 0.8 1.2 1.2 1.7 c0.914 1.1 1.9 2.2 3.1 2.997c2.344 1.7 5.1 2.6 7.8 2.686c2.694 0.1 5.329-0.5 7.548-1.673 c0.543-0.318 1.098-0.606 1.584-0.987l0.743-0.546l0.72-0.639c0.913-0.897 1.634-1.95 2.133-3.066 c1.005-2.238 1.113-4.7 0.511-6.828c-0.309-1.064-0.788-2.043-1.376-2.904l-0.46-0.625l-0.572-0.586 c-0.359-0.409-0.818-0.691-1.258-0.978c-1.799-1.112-3.933-1.226-5.637-0.634c-0.415 0.181-0.847 0.308-1.21 0.5 c-0.36 0.248-0.719 0.455-1.046 0.737c-0.673 0.598-1.134 1.35-1.387 2.121c-0.487 1.565-0.055 3.1 0.7 4.1 c0.806 1.1 2.2 1.5 3.2 1.209c0.243-0.04 0.492-0.147 0.72-0.263c0.259-0.111 0.325-0.222 0.486-0.327 c0.382-0.31 0.59-0.642 0.687-0.988c0.205-0.687 0.008-1.197-0.194-1.481c-0.192-0.259-0.341-0.308-0.397-0.282 c-0.164 0.1 0.3 0.684-0.167 1.451c-0.089 0.181-0.298 0.351-0.468 0.438c-0.142 0.057-0.345 0.208-0.454 0.2 c-0.122 0.023-0.237 0.062-0.404 0.059c-0.612 0.047-1.322-0.241-1.683-0.921c-0.426-0.71-0.567-1.69-0.197-2.578 c0.196-0.436 0.495-0.833 0.897-1.136c0.213-0.154 0.495-0.278 0.738-0.431c0.253-0.146 0.557-0.188 0.832-0.3 c1.152-0.311 2.528-0.129 3.6 0.643c0.259 0.2 0.5 0.4 0.7 0.655l0.339 0.374l0.308 0.5 c0.39 0.6 0.7 1.4 0.9 2.128c0.35 1.5 0.2 3.254-0.569 4.764c-0.375 0.753-0.894 1.448-1.535 2.035l-0.506 0.4 l-0.59 0.397c-0.383 0.287-0.824 0.485-1.246 0.72c-1.734 0.841-3.75 1.275-5.79 1.104c-2.039-0.144-4.084-0.885-5.803-2.152 c-0.871-0.627-1.608-1.42-2.293-2.286c-0.326-0.478-0.654-0.958-0.983-1.441c-0.279-0.513-0.56-1.027-0.843-1.546 c-1.024-2.124-1.627-4.502-1.72-6.946c-0.007-0.163 0.008-0.328 0.005-0.491l4.066-0.963l-3.985-0.944 c0.108-1.117 0.313-2.231 0.634-3.323l4.789 0.117l-4.112-2.009c0.51-1.217 1.16-2.379 1.938-3.466l4.838 1.132l-3.529-2.738 c0.281-0.306 0.554-0.618 0.859-0.905c0.503-0.414 0.958-0.857 1.489-1.252c0.548-0.383 1.094-0.766 1.638-1.147 c0.526-0.412 1.133-0.687 1.701-1.021c0.582-0.31 1.13-0.683 1.745-0.914c0.6-0.263 1.198-0.524 1.793-0.785 c0.604-0.237 1.231-0.407 1.841-0.616l0.918-0.3l0.94-0.205c0.626-0.128 1.244-0.294 1.871-0.395 c2.513-0.373 5.022-0.451 7.461-0.206c2.421 0.3 4.8 0.8 7 1.666c4.417 1.6 8.1 4.3 10.9 7.4 c0.351 0.4 0.7 0.8 1 1.165c0.091 0.1 0.3 0.3 0.4 0.537l0.419 0.641c0.547 0.9 1.1 1.7 1.5 2.6 c0.939 1.8 1.7 3.5 2.3 5.224c1.256 3.4 1.9 6.7 2.1 9.563c0.173 2.884-0.148 5.377-0.599 7.4 c-0.97 3.994-2.234 6.024-1.934 6.197c0.166 0.1 1.924-1.618 3.454-5.751c0.725-2.062 1.317-4.731 1.354-7.865 C71.193 39 70.7 35.5 69.5 31.707z" class="style0"/>
<path d="M34.118 47.928c0 0 0.2 0.7 0.4 1.682c0.145 0.5 0.3 1.1 0.5 1.7 c0.112 0.3 0.2 0.6 0.3 0.903c0.103 0.3 0.3 0.6 0.4 0.892c0.141 0.3 0.3 0.6 0.5 0.8 c0.178 0.3 0.3 0.5 0.5 0.755c0.185 0.2 0.4 0.4 0.5 0.646c0.177 0.2 0.4 0.4 0.5 0.5 c0.312 0.3 0.6 0.5 0.9 0.719c0.21 0.2 0.3 0.3 0.3 0.26L36.9 58.964c0 0-0.114-0.154-0.314-0.425 c-0.193-0.276-0.496-0.635-0.775-1.149c-0.143-0.252-0.311-0.511-0.456-0.806c-0.132-0.3-0.272-0.616-0.416-0.942 c-0.145-0.323-0.226-0.684-0.341-1.03c-0.121-0.347-0.19-0.708-0.254-1.068c-0.062-0.359-0.152-0.711-0.17-1.064 c-0.033-0.349-0.064-0.692-0.095-1.024c-0.031-0.665-0.03-1.282-0.036-1.802C34.087 48.6 34.1 47.9 34.1 47.928z" class="style0"/>
</g>
</svg>
