<?xml version="1.0" encoding="utf-8"?>
<svg version="1.1" id="Layer_1" xmlns="http://www.w3.org/2000/svg" xmlns:xlink="http://www.w3.org/1999/xlink" x="0px" y="0px"
	 viewBox="0 0 100 100" style="enable-background:new 0 0 100 100;" xml:space="preserve">
<style type="text/css">
	.st0{fill:#876969;}
</style>
<g>
	<path class="st0" d="M42.9,34.8c0.9-2.9,1.1-5.7,1.1-7.9c-0.1-4.6-1.2-7.2-1.7-7.1c-0.4,0.1-0.2,2.8-0.6,7
		c-0.2,2.1-0.7,4.6-1.6,7.1c-0.2,0.6-0.5,1.3-0.8,1.9c-0.1,0.2-0.4,1-0.6,1.6c-0.2,0.6-0.5,1.3-0.7,1.9c0,0.4,0.2,1,0.7,1.4
		c0.4,0.4,0.9,0.5,1.6,0.6c0.6,0,1.4-0.2,2.1-0.4c0.4-0.2,0.9-0.3,1.3-0.5c0.5-0.2,0.8-0.2,1.1-0.3c0.3,0,0.7-0.2,1-0.1
		c0.3,0,0.7,0,1,0c0.3,0,0.7,0.1,1,0.1c1.4,0.2,2.8,0.6,4.2,1.1c0.7,0.2,1.4,0.4,2,0.6c0.7,0.2,1.6,0.4,2.4,0.3
		c0.9-0.1,1.9-0.4,2.5-1.2c0.6-0.7,0.8-1.6,0.8-2.3c0-1.4-0.4-2.5-0.8-3.3c-0.4-0.9-1-1.5-1.4-2c-1-0.9-1.7-1.2-1.8-1
		c-0.2,0.2,0.2,0.7,0.8,1.8c0.2,0.5,0.6,1.1,0.8,1.9c0.2,0.7,0.4,1.6,0.2,2.4c0,0.4-0.2,0.7-0.4,0.8c-0.1,0.2-0.4,0.2-0.8,0.2
		c-0.4,0-0.9-0.2-1.5-0.4c-0.6-0.2-1.3-0.5-2-0.7c-1.3-0.5-2.9-1-4.6-1.4c-0.4-0.1-0.9-0.1-1.3-0.2c-0.5,0-0.9,0-1.4,0
		c-0.5,0-0.9,0.1-1.4,0.2c-0.5,0.1-1,0.2-1.3,0.3c-0.3,0.1-0.7,0.2-1,0.4c0,0,0,0,0,0c0,0,0,0,0,0l0,0c0-0.1-0.1,0.1,0.2-0.4
		C42.4,36.2,42.7,35.5,42.9,34.8z"/>
	<path class="st0" d="M85.8,41.8c0.5-0.2,1.2-0.1,1.9,0.4c-0.1,0.3-0.3,0.6-0.4,0.8c-0.9,2.4-0.8,3.9-0.6,4c0.3,0.1,0.6-1.4,1.7-3.5
		c0.1-0.2,0.2-0.3,0.3-0.5c0.6,0.7,1.2,1.5,1.8,2.5c0.2,0.3,0.5,0.6,0.9,0.7c0.4,0.1,0.8,0,1.1-0.2c0.7-0.5,0.9-0.9,1.1-1.4
		c0.4-0.9,0.7-1.8,0.8-2.8c0-0.5,0-1-0.1-1.6c-0.1-0.3-0.2-0.6-0.3-0.9c-0.2-0.3-0.4-0.6-0.8-0.8c-0.8-0.3-1.4-0.1-1.9,0
		c-0.4,0.2-0.8,0.4-1.2,0.7c-0.8,0.5-1.3,1.2-1.8,1.8c-0.5-0.2-0.9-0.4-1.4-0.4c-0.6,0-1.1,0.1-1.4,0.3c-0.7,0.4-0.8,0.9-0.7,0.9
		C84.9,42.2,85.2,41.9,85.8,41.8z M90.9,40.7c0.3-0.2,0.6-0.3,0.9-0.5c0.3-0.1,0.6-0.1,0.6-0.1c0.1,0,0.2,0.2,0.2,0.5
		c0.1,0.3,0.1,0.7,0,1.1c-0.1,0.8-0.3,1.6-0.6,2.3c-0.1,0.3-0.4,0.7-0.4,0.6c0,0,0,0-0.1,0c-0.7-1-1.4-2-2.3-2.7
		C89.8,41.5,90.3,41.1,90.9,40.7z"/>
	<path class="st0" d="M27.9,32.3c0.3,0.1,0.8-1.6,1.8-3.9c0.1-0.1,0.1-0.3,0.2-0.4c0.2,0.2,0.3,0.4,0.5,0.7c0.2,0.3,0.4,0.6,0.7,1.1
		c0.1,0.2,0.3,0.5,0.4,0.7l0.2,0.4c0.1,0.1,0.2,0.3,0.4,0.4c0.6,0.4,1.5,0.5,2-0.1c0.3-0.2,0.6-0.6,0.8-1c0.2-0.3,0.3-0.6,0.4-0.8
		c0.4-1,0.6-2.1,0.7-3.2c0-0.6,0-1.2-0.1-1.8c-0.1-0.3-0.2-0.7-0.3-1c-0.2-0.4-0.5-0.8-1-1c-0.4-0.2-0.9-0.3-1.3-0.2
		c-0.2,0-0.4,0.1-0.6,0.2c-0.2,0.1-0.3,0.1-0.4,0.2c-0.5,0.3-1,0.6-1.3,0.9c-0.7,0.6-1.2,1.2-1.6,1.9c-0.3-0.2-0.7-0.3-1.1-0.3
		c-0.7-0.1-1.3,0.1-1.7,0.4c-0.7,0.6-0.8,1.1-0.7,1.2c0.1,0.1,0.5-0.2,1.1-0.4c0.5-0.1,1,0,1.6,0.4c-0.2,0.4-0.3,0.8-0.5,1.2
		C27.5,30.5,27.7,32.2,27.9,32.3z M32.3,25c0.3-0.3,0.6-0.4,0.9-0.6c0.3-0.2,0.4-0.1,0.4-0.1c0,0,0,0,0,0c0,0.1,0.1,0.2,0.1,0.4
		c0.1,0.3,0.1,0.8,0,1.2c-0.1,0.9-0.3,1.8-0.5,2.6c-0.1,0.2-0.2,0.4-0.2,0.5c0,0,0,0,0,0c0,0,0,0.1-0.1,0c0,0,0,0,0,0l-0.1-0.2
		l-0.2-0.4c-0.1-0.2-0.4-0.6-0.7-0.9c-0.3-0.4-0.7-0.8-1-1.2C31.3,25.9,31.8,25.4,32.3,25z"/>
	<path class="st0" d="M87.1,65.5l0-0.6c0-0.8,0-1.6,0-2.3c0-0.4-0.1-0.7-0.1-1.1c0-0.3,0-0.7,0-1c0-1.3-0.1-2.5-0.1-3.6
		c-0.1-4.5-0.3-7.3-0.7-7.4c-0.4,0-1.1,2.7-1.5,7.3c-0.1,1.2-0.2,2.4-0.3,3.8c0,0.3,0,0.7-0.1,1c0,0.3,0,0.7,0,1c0,0.7,0,1.4-0.1,2
		l-0.1,0.5c0,0.1,0,0.3,0,0.2c0,0,0,0,0,0c0,0-0.1,0-0.1,0c0,0-0.1-0.1-0.3-0.4c-0.2-0.3-0.4-0.6-0.6-0.9c-0.4-0.7-0.8-1.4-1.2-2.1
		C78.5,56,76.2,50.1,74.5,46c0-0.1-0.1-0.2-0.1-0.3c-0.3-2.4-0.8-5-1.7-7.6c-0.7-2.2-1.6-4.5-2.7-6.8c-0.5-1.1-1.2-2.3-1.8-3.4
		L67.7,27c-0.2-0.3-0.3-0.6-0.6-0.9c-0.4-0.5-0.9-1.1-1.3-1.6c-3.6-4.2-8.5-8-14.3-10.3c-2.9-1.2-6.1-1.9-9.4-2.4
		c-3.3-0.4-6.7-0.3-10.1,0.2c-0.8,0.1-1.7,0.3-2.5,0.5l-1.3,0.3l-1.3,0.4c-0.8,0.3-1.7,0.5-2.5,0.8c-0.8,0.3-1.6,0.7-2.4,1.1
		c-3.2,1.6-6.3,3.4-9.1,6c-0.9,0.8-1.7,1.7-2.4,2.6l1.8,1.7l-2.7-0.4c-1.3,1.9-2.3,3.9-3.1,6l2.4,1.4l-3,0.3c-0.6,2-0.9,4-0.9,6
		l1.7,0.6L5,39.6c0,0.4,0,0.7,0,1.1c0.2,3.5,1.1,7,2.6,10C8,51.5,8.4,52.3,8.8,53c0.5,0.7,1,1.4,1.4,2c1.1,1.3,2.3,2.6,3.7,3.5
		c2.8,2,6,3,9.2,3.2c2.6,0.1,5.2-0.4,7.5-1.3c0,0.3,0,0.7,0,1c0,0.4,0.1,0.8,0.1,1.2c0,0.4,0.1,0.8,0.2,1.3c0.1,0.4,0.2,0.9,0.3,1.3
		c0.1,0.4,0.2,0.8,0.4,1.2c0.2,0.4,0.3,0.7,0.4,1c-0.7,0.2-1.3,0.4-2,0.6c-5,1.7-7.8,3.6-7.5,4.2c0.3,0.7,3.3-0.1,8.3-0.8
		c4.9-0.8,11.8-1.4,19.4-1.4c7.6,0,14.5,0.7,19.4,1.4c4.9,0.7,8,1.5,8.3,0.8c0.3-0.6-2.5-2.5-7.5-4.2c-3.4-1.2-7.9-2.1-12.9-2.6
		c-0.1-0.2-0.1-0.5-0.2-0.7c-0.1-0.3-0.1-0.7-0.2-1.1c-0.1-0.4-0.2-0.8-0.2-1.3c0-0.5-0.1-0.9-0.1-1.4c-0.1-0.5,0-1-0.1-1.5
		c0-0.5,0-1,0-1.5c0-0.5,0.1-1,0.1-1.4c0.1-0.5,0.1-0.9,0.2-1.3c0-0.4,0.2-0.8,0.3-1.2c0.1-0.4,0.2-0.7,0.3-1
		c0.1-0.3,0.2-0.5,0.3-0.7c0.2-0.4,0.3-0.7,0.3-0.7s-0.2,0.2-0.4,0.5c-0.1,0.2-0.3,0.4-0.5,0.6c-0.2,0.3-0.4,0.6-0.6,0.9
		c-0.2,0.3-0.4,0.7-0.6,1.1c-0.2,0.4-0.4,0.9-0.6,1.3c-0.2,0.5-0.3,1-0.5,1.4c-0.2,0.5-0.3,1-0.5,1.5c-0.1,0.5-0.3,1-0.4,1.6
		c-0.1,0.5-0.2,1-0.3,1.5c-0.1,0.5-0.1,1-0.2,1.5c0,0.5-0.1,0.9-0.1,1.4c0,0,0,0,0,0c-1,0-2.1-0.1-3.2-0.1c-5.7,0-10.9,0.6-15.3,1.6
		c0,0,0,0-0.1-0.1c-0.2-0.2-0.4-0.4-0.6-0.6c-0.2-0.2-0.4-0.5-0.6-0.8c-0.2-0.3-0.4-0.6-0.6-0.9c-0.2-0.3-0.4-0.6-0.6-1
		c-0.2-0.3-0.4-0.7-0.5-1.1c-0.1-0.4-0.3-0.7-0.4-1.1c-0.1-0.4-0.2-0.8-0.4-1.1c0.2-0.1,0.4-0.2,0.6-0.3c0.6-0.4,1.3-0.7,1.9-1.2
		l0.9-0.6l0.9-0.8c1.1-1.1,1.9-2.3,2.5-3.6c1.2-2.7,1.3-5.6,0.6-8.1c-0.4-1.3-0.9-2.4-1.6-3.4l-0.5-0.7L36,40.6
		c-0.4-0.5-1-0.8-1.5-1.2c-2.1-1.3-4.7-1.5-6.7-0.8c-0.5,0.2-1,0.4-1.4,0.6c-0.4,0.3-0.9,0.5-1.2,0.9c-0.8,0.7-1.3,1.6-1.6,2.5
		c-0.6,1.9-0.1,3.7,0.9,4.9c1,1.3,2.6,1.7,3.8,1.4c0.3,0,0.6-0.2,0.9-0.3c0.3-0.1,0.4-0.3,0.6-0.4c0.5-0.4,0.7-0.8,0.8-1.2
		c0.2-0.8,0-1.4-0.2-1.8c-0.2-0.3-0.4-0.4-0.5-0.3c-0.2,0.1,0.3,0.8-0.2,1.7c-0.1,0.2-0.4,0.4-0.6,0.5c-0.2,0.1-0.4,0.2-0.5,0.2
		c-0.1,0-0.3,0.1-0.5,0.1c-0.7,0.1-1.6-0.3-2-1.1c-0.5-0.8-0.7-2-0.2-3.1c0.2-0.5,0.6-1,1.1-1.3c0.3-0.2,0.6-0.3,0.9-0.5
		c0.3-0.2,0.7-0.2,1-0.4c1.4-0.4,3-0.2,4.3,0.8c0.3,0.2,0.6,0.4,0.9,0.8l0.4,0.4l0.4,0.6c0.5,0.8,0.8,1.6,1,2.5
		c0.4,1.8,0.2,3.9-0.7,5.6c-0.4,0.9-1.1,1.7-1.8,2.4l-0.6,0.5l-0.7,0.5c-0.5,0.3-1,0.6-1.5,0.9c-2.1,1-4.4,1.5-6.9,1.3
		c-2.4-0.2-4.8-1-6.9-2.5c-1-0.7-1.9-1.7-2.7-2.7c-0.4-0.6-0.8-1.1-1.2-1.7c-0.3-0.6-0.7-1.2-1-1.8c-1.2-2.5-1.9-5.3-2-8.2
		c0-0.2,0-0.4,0-0.6l4.8-1.1l-4.7-1.1c0.1-1.3,0.4-2.6,0.8-3.9l5.7,0.1l-4.9-2.4c0.6-1.4,1.4-2.8,2.3-4.1l5.7,1.3l-4.2-3.2
		c0.3-0.4,0.7-0.7,1-1.1c0.6-0.5,1.1-1,1.8-1.5c0.6-0.5,1.3-0.9,1.9-1.4c0.6-0.5,1.3-0.8,2-1.2c0.7-0.4,1.3-0.8,2.1-1.1
		c0.7-0.3,1.4-0.6,2.1-0.9c0.7-0.3,1.5-0.5,2.2-0.7l1.1-0.4l1.1-0.2c0.7-0.2,1.5-0.3,2.2-0.5c3-0.4,5.9-0.5,8.8-0.2
		c2.9,0.4,5.7,0.9,8.3,2c5.2,1.9,9.6,5.1,12.9,8.8c0.4,0.5,0.8,0.9,1.2,1.4c0.1,0.1,0.3,0.4,0.5,0.6l0.5,0.8c0.6,1,1.2,2.1,1.8,3.1
		c1.1,2.1,2,4.2,2.8,6.2c1.5,4.1,2.3,7.9,2.5,11.3c0.2,3.4-0.2,6.4-0.7,8.7c-1.1,4.7-2.6,7.1-2.3,7.3c0.2,0.1,2.3-1.9,4.1-6.8
		c0.6-1.8,1.1-3.9,1.4-6.3c1.1,3.1,2.5,6.5,4.4,10c0.4,0.8,0.9,1.6,1.4,2.3c0.2,0.4,0.5,0.7,0.8,1.1c0.3,0.3,0.7,0.8,1.3,1.4
		c0.6,0.5,1.3,0.8,1.9,0.8c0.7,0,1.3-0.3,1.8-0.8c0.4-0.5,0.7-1.2,0.9-1.9C87,66,87,65.8,87.1,65.5z"/>
	<ellipse transform="matrix(0.7402 -0.6723 0.6723 0.7402 -16.8286 53.7999)" class="st0" cx="61.2" cy="48.7" rx="2.7" ry="1.3"/>
	<path class="st0" d="M55.2,77.2c-0.5,0-0.8,0.2-1.1,0.6c-0.3,0.4-0.4,1-0.4,1.7v4.2h-0.5v0.5h0.5v4.4H55v-4.4h1.4v-0.5H55V79
		c0-0.8,0.2-1.3,0.6-1.3c0.3,0,0.5,0.2,0.6,0.5c0.2,0.3,0.2,0.8,0.2,1.3v0.6h0.4C56.8,78.7,56.8,77.2,55.2,77.2z"/>
	<path class="st0" d="M69,80.9h-1.4v7.6H69v-7.2c0.9,0,1.4,0.5,1.4,1.5v1.5h1.3C71.7,83,71.7,80.9,69,80.9z"/>
	<path class="st0" d="M72.8,86.2c-0.3,0-0.5,0.1-0.7,0.4c-0.2,0.2-0.3,0.5-0.3,0.9c0,0.3,0.1,0.6,0.3,0.9c0.2,0.2,0.4,0.4,0.7,0.4
		c0.3,0,0.5-0.1,0.7-0.4c0.2-0.2,0.3-0.5,0.3-0.9c0-0.3-0.1-0.6-0.3-0.9C73.3,86.3,73.1,86.2,72.8,86.2z"/>
	<path class="st0" d="M8.2,77.2c-1.2,0-2.1,0.4-2.8,1.2c-0.7,0.8-1,1.8-1,3.1v2.9c0,1.2,0.3,2.2,1,3.1c0.7,0.8,1.6,1.2,2.8,1.2
		c0.8,0,1.5-0.2,2.2-0.7c0.4-0.2,0.7-0.6,0.9-1s0.3-1,0.3-1.5v-0.2h-1.4v0.4c0,0.8-0.2,1.4-0.5,1.8c-0.4,0.5-0.9,0.7-1.6,0.7
		c-0.7,0-1.2-0.2-1.6-0.7c-0.4-0.5-0.5-1.1-0.5-1.8v-5.3c0-0.8,0.2-1.4,0.5-1.8C7,78,7.5,77.8,8.2,77.8c0.7,0,1.2,0.2,1.6,0.7
		c0.4,0.5,0.5,1.1,0.5,1.8v0.4h1.4v-0.2c0-1-0.3-1.8-1-2.4S9.1,77.2,8.2,77.2z"/>
	<path class="st0" d="M18.1,87.9c-0.2,0-0.4-0.2-0.4-0.5v-6.4h-1.4v0.9c-0.3-0.7-0.8-1.1-1.5-1.1c-0.7,0-1.2,0.2-1.6,0.7
		c-0.4,0.5-0.6,1.1-0.6,1.9v2.8c0,0.8,0.2,1.4,0.6,1.9c0.4,0.5,0.9,0.7,1.5,0.7c0.8,0,1.3-0.4,1.6-1.2c0.1,0.8,0.5,1.2,1.3,1.2
		c0.2,0,0.4,0,0.6-0.1c0.2-0.1,0.3-0.2,0.4-0.3s0.2-0.3,0.2-0.4c0.1-0.2,0.1-0.3,0.1-0.4l-0.3,0C18.5,87.7,18.3,87.9,18.1,87.9z
		 M16.3,86.3c0,0.5-0.1,1-0.3,1.3c-0.2,0.4-0.6,0.5-1,0.5c-0.6,0-0.9-0.5-0.9-1.5v-3.9c0-1,0.3-1.5,1-1.5c0.4,0,0.7,0.2,1,0.6
		c0.2,0.4,0.4,0.8,0.4,1.3V86.3z"/>
	<path class="st0" d="M22,87.8c-0.1,0.1-0.2,0.1-0.3,0.1c-0.2,0-0.4-0.2-0.4-0.5v-10H20v9.7c0,1.1,0.4,1.6,1.3,1.6
		c0.4,0,0.7-0.2,1-0.5c0.1-0.1,0.2-0.3,0.2-0.4c0.1-0.2,0.1-0.3,0.1-0.4l-0.3,0C22.2,87.5,22.1,87.7,22,87.8z"/>
	<path class="st0" d="M25.4,87.9c-0.2,0-0.4-0.2-0.4-0.5v-6.4h-1.4v6.2c0,1.1,0.4,1.6,1.3,1.6c0.2,0,0.4,0,0.6-0.1
		c0.2-0.1,0.3-0.2,0.4-0.3c0.1-0.1,0.2-0.3,0.2-0.4c0.1-0.2,0.1-0.3,0.1-0.4l-0.3,0C25.8,87.7,25.6,87.9,25.4,87.9z"/>
	<path class="st0" d="M24.3,79.6c0.2,0,0.4-0.1,0.5-0.3s0.2-0.5,0.2-0.8c0-0.3-0.1-0.6-0.2-0.8c-0.1-0.2-0.3-0.3-0.5-0.3
		c-0.2,0-0.4,0.1-0.5,0.3c-0.1,0.2-0.2,0.5-0.2,0.8c0,0.3,0.1,0.6,0.2,0.8C24,79.5,24.1,79.6,24.3,79.6z"/>
	<path class="st0" d="M32.7,87.9c-0.2,0-0.4-0.2-0.4-0.5v-4c0-0.8-0.2-1.4-0.6-1.9c-0.4-0.5-0.9-0.7-1.6-0.7s-1.2,0.4-1.5,1.1v-0.9
		h-1.4v7.6h1.4v-5.4c0-0.5,0.1-0.9,0.4-1.3c0.2-0.4,0.6-0.6,1-0.6c0.6,0,1,0.5,1,1.5v4.3c0,1.1,0.4,1.6,1.3,1.6c0.2,0,0.4,0,0.6-0.1
		c0.2-0.1,0.3-0.2,0.4-0.3c0.1-0.1,0.2-0.3,0.2-0.4c0.1-0.2,0.1-0.3,0.1-0.4l-0.3,0C33.1,87.7,32.9,87.9,32.7,87.9z"/>
	<path class="st0" d="M39.9,87.9c-0.2,0-0.4-0.2-0.4-0.5v-6.4h-1.4v0.9c-0.3-0.7-0.8-1.1-1.5-1.1c-0.7,0-1.2,0.2-1.6,0.7
		c-0.4,0.5-0.6,1.1-0.6,1.9v2.8c0,0.8,0.2,1.4,0.6,1.9c0.4,0.5,0.9,0.7,1.5,0.7c0.8,0,1.3-0.4,1.6-1.2c0.1,0.8,0.5,1.2,1.3,1.2
		c0.2,0,0.4,0,0.6-0.1c0.2-0.1,0.3-0.2,0.4-0.3c0.1-0.1,0.2-0.3,0.2-0.4c0.1-0.2,0.1-0.3,0.1-0.4l-0.3,0
		C40.3,87.7,40.1,87.9,39.9,87.9z M38.1,86.3c0,0.5-0.1,1-0.3,1.3c-0.2,0.4-0.6,0.5-1,0.5c-0.6,0-0.9-0.5-0.9-1.5v-3.9
		c0-1,0.3-1.5,1-1.5c0.4,0,0.8,0.2,1,0.6c0.2,0.4,0.4,0.8,0.4,1.3V86.3z"/>
	<polygon class="st0" points="43.7,77.4 41.9,77.4 41.9,88.5 46.6,88.5 46.6,87.8 43.7,87.8 	"/>
	<path class="st0" d="M49.5,80.8c-0.8,0-1.4,0.3-1.8,0.8c-0.4,0.5-0.6,1.1-0.6,1.9V86c0,0.8,0.2,1.4,0.6,1.9s1,0.8,1.9,0.8
		c0.5,0,0.9-0.1,1.2-0.4c0.5-0.4,0.8-1,0.8-1.6h-0.4c0,0.3-0.1,0.6-0.4,1c-0.2,0.4-0.6,0.6-1.1,0.6c-0.9,0-1.3-0.5-1.3-1.6v-1.8h3.2
		v-1.3c0-0.8-0.2-1.4-0.5-2C50.9,81,50.3,80.8,49.5,80.8z M50.8,84.3h-2.3v-1.5c0-1,0.4-1.6,1.2-1.6c0.8,0,1.1,0.5,1.1,1.6V84.3z"/>
	<path class="st0" d="M59.9,87.9c-0.2,0-0.4-0.2-0.4-0.5v-6h1.2v-0.5h-1.2v-2.8h-1.4v2.8h-0.7v0.5h0.7v5.7c0,1.1,0.4,1.6,1.3,1.6
		c0.2,0,0.4,0,0.6-0.1c0.2-0.1,0.3-0.2,0.4-0.3c0.1-0.1,0.2-0.3,0.2-0.4s0.1-0.3,0.1-0.4l-0.3,0C60.3,87.7,60.1,87.9,59.9,87.9z"/>
	<path class="st0" d="M64.4,80.8c-0.8,0-1.4,0.3-1.8,0.8c-0.4,0.5-0.6,1.1-0.6,1.9V86c0,0.8,0.2,1.4,0.6,1.9c0.4,0.5,1,0.8,1.9,0.8
		c0.5,0,0.9-0.1,1.2-0.4c0.5-0.4,0.8-1,0.8-1.6H66c0,0.3-0.1,0.6-0.4,1c-0.2,0.4-0.6,0.6-1.1,0.6c-0.9,0-1.3-0.5-1.3-1.6v-1.8h3.2
		v-1.3c0-0.8-0.2-1.4-0.5-2C65.7,81,65.2,80.8,64.4,80.8z M65.6,84.3h-2.3v-1.5c0-1,0.4-1.6,1.2-1.6c0.8,0,1.1,0.5,1.1,1.6V84.3z"/>
	<path class="st0" d="M79.4,82.9c0-0.3-0.1-0.7-0.3-1.2c-0.1-0.3-0.3-0.5-0.6-0.7c-0.3-0.2-0.6-0.3-1-0.3c-0.7,0-1.3,0.2-1.7,0.7
		c-0.4,0.5-0.6,1.1-0.6,2V86c0,0.8,0.2,1.5,0.6,2c0.4,0.5,1,0.7,1.7,0.7c0.4,0,0.7-0.1,0.9-0.2c0.3-0.2,0.5-0.4,0.6-0.6
		c0.2-0.5,0.4-0.9,0.4-1.3H79v0.1c0,0.3-0.1,0.6-0.3,1c-0.2,0.4-0.5,0.5-0.9,0.5c-0.4,0-0.7-0.1-0.9-0.4c-0.2-0.3-0.3-0.7-0.3-1.2
		v-3.8c0-0.5,0.1-0.9,0.3-1.2c0.2-0.3,0.5-0.4,0.8-0.4c0.3,0,0.6,0.1,0.8,0.3c0.3,0.4,0.5,0.7,0.5,1.2v0.1H79.4z"/>
	<path class="st0" d="M82.9,80.8c-0.8,0-1.4,0.3-1.9,0.8s-0.7,1.1-0.7,1.9V86c0,0.8,0.2,1.4,0.7,1.9s1.1,0.8,1.9,0.8
		s1.4-0.3,1.9-0.8c0.4-0.5,0.7-1.2,0.7-1.9v-2.5c0-0.8-0.2-1.4-0.7-1.9C84.4,81,83.8,80.8,82.9,80.8z M84.1,86.6
		c0,1.1-0.4,1.6-1.2,1.6c-0.8,0-1.2-0.5-1.2-1.6v-3.8c0-1,0.4-1.6,1.2-1.6c0.8,0,1.2,0.5,1.2,1.6V86.6z"/>
	<path class="st0" d="M96,87.4c-0.1,0.3-0.3,0.5-0.5,0.5c-0.2,0-0.3-0.2-0.3-0.5v-4c0-0.8-0.2-1.4-0.6-1.9s-0.9-0.7-1.5-0.7
		c-0.5,0-0.8,0.1-1.1,0.4c-0.3,0.3-0.5,0.7-0.6,1.1c-0.1-0.5-0.4-0.9-0.7-1.1c-0.3-0.3-0.8-0.4-1.2-0.4c-0.8,0-1.3,0.4-1.6,1.1v-0.9
		h-1.4v7.6h1.4v-5.4c0-0.5,0.1-0.9,0.4-1.3c0.2-0.4,0.6-0.6,1-0.6c0.6,0,1,0.5,1,1.5v5.8h1.4v-5.4c0-0.5,0.1-0.9,0.3-1.3
		c0.2-0.4,0.6-0.6,1-0.6c0.6,0,1,0.5,1,1.5v4.3c0,1.1,0.4,1.6,1.3,1.6c0.2,0,0.4,0,0.6-0.1c0.2-0.1,0.3-0.2,0.4-0.3
		c0.1-0.1,0.2-0.3,0.2-0.4s0.1-0.3,0.1-0.4L96,87.4z"/>
</g>
</svg>
