<svg version="1.1" id="Layer_1" xmlns="http://www.w3.org/2000/svg" xmlns:xlink="http://www.w3.org/1999/xlink" x="0px" y="0px"
	 width="80px" height="80px" viewBox="10 -10 80 80" enable-background="new 10 -10 80 80" xml:space="preserve">
<path fill="#9B8579" d="M55.212,21.749c0.103-0.128,0.703,0.078,1.51,0.857c0.379,0.403,0.833,0.929,1.198,1.657
	c0.363,0.724,0.732,1.611,0.702,2.8c0.01,0.576-0.197,1.306-0.701,1.937c-0.54,0.675-1.405,0.927-2.146,0.999
	c-0.726,0.03-1.438-0.114-2.04-0.277c-0.562-0.166-1.139-0.337-1.73-0.512c-1.171-0.369-2.334-0.711-3.507-0.914
	c-0.288-0.036-0.579-0.073-0.872-0.111c-0.284,0.002-0.57,0.003-0.858,0.005c-0.292-0.025-0.565,0.062-0.849,0.103
	c-0.28,0.047-0.543,0.064-0.953,0.246c-0.375,0.141-0.746,0.28-1.116,0.419c-0.627,0.229-1.268,0.396-1.796,0.379
	c-0.531-0.02-0.947-0.171-1.322-0.479c-0.404-0.339-0.577-0.828-0.6-1.181c0.145-0.502,0.393-1.067,0.581-1.586
	c0.192-0.499,0.438-1.156,0.52-1.323c0.234-0.55,0.488-1.08,0.663-1.627c0.783-2.159,1.181-4.235,1.37-6.002
	c0.382-3.547,0.141-5.813,0.517-5.893c0.348-0.096,1.298,2.134,1.401,5.977c0.05,1.913-0.171,4.228-0.912,6.703
	c-0.165,0.625-0.417,1.239-0.659,1.873c-0.176,0.45-0.111,0.3-0.128,0.354l-0.004,0.042c0.006,0.01,0.032-0.001,0.036-0.008
	c0.006-0.004-0.002-0.004,0.01-0.009c0.284-0.103,0.569-0.205,0.856-0.309c0.238-0.115,0.672-0.181,1.078-0.247
	c0.403-0.059,0.804-0.155,1.201-0.129c0.396,0.003,0.794-0.002,1.18,0.02c0.375,0.056,0.747,0.111,1.115,0.167
	c1.434,0.287,2.714,0.736,3.845,1.162c0.564,0.207,1.116,0.41,1.651,0.606c0.502,0.174,0.89,0.272,1.253,0.304
	c0.316-0.021,0.551-0.033,0.672-0.163c0.126-0.137,0.304-0.353,0.335-0.702c0.123-0.657-0.014-1.42-0.194-2.04
	c-0.172-0.64-0.437-1.164-0.644-1.606C55.419,22.38,55.077,21.907,55.212,21.749z"/>
<path fill="#9B8579" d="M53.309,51.77c0,0,0.009-0.217,0.024-0.598c0.02-0.386,0.032-0.914,0.073-1.588
	c0.036-0.355,0.075-0.741,0.116-1.149c0.052-0.402,0.068-0.835,0.162-1.254c0.079-0.421,0.161-0.856,0.245-1.299
	c0.067-0.439,0.218-0.881,0.327-1.318c0.124-0.438,0.222-0.875,0.39-1.294c0.151-0.417,0.301-0.827,0.445-1.224
	c0.179-0.383,0.351-0.752,0.515-1.104c0.15-0.351,0.341-0.664,0.521-0.949c0.175-0.282,0.335-0.541,0.477-0.77
	c0.171-0.211,0.319-0.394,0.441-0.544c0.241-0.294,0.379-0.463,0.379-0.463s-0.084,0.201-0.232,0.553
	c-0.071,0.173-0.159,0.382-0.259,0.622c-0.069,0.252-0.146,0.535-0.23,0.846c-0.087,0.305-0.174,0.634-0.216,1
	c-0.054,0.357-0.11,0.734-0.169,1.124c-0.023,0.394-0.048,0.8-0.073,1.213c-0.04,0.405-0.009,0.831-0.004,1.247
	c0.02,0.418-0.002,0.826,0.056,1.236c0.042,0.405,0.083,0.805,0.122,1.189c0.025,0.388,0.121,0.736,0.175,1.075
	c0.062,0.332,0.119,0.646,0.172,0.937c0.062,0.298,0.148,0.602,0.209,0.855c0.064,0.257,0.121,0.481,0.168,0.666
	c0.093,0.369,0.146,0.581,0.146,0.581L53.309,51.77z"/>
<path fill="#9B8579" d="M79.713,30.135c-0.067-0.041,0.025-0.416,0.576-0.776c0.271-0.17,0.684-0.328,1.168-0.291
	c0.477,0.036,1,0.216,1.473,0.522c0.955,0.59,1.806,1.646,2.528,2.724c0.021,0.02,0.048,0.017,0.058-0.002
	c-0.021,0.031,0.221-0.279,0.331-0.546c0.264-0.571,0.445-1.265,0.512-1.942c0.031-0.338,0.027-0.672-0.025-0.942
	c-0.05-0.286-0.164-0.434-0.211-0.446c-0.032-0.051-0.272-0.037-0.504,0.044c-0.264,0.151-0.549,0.243-0.789,0.422
	c-1.004,0.648-1.677,1.581-2.155,2.411c-0.901,1.715-1.18,2.972-1.398,2.924c-0.144-0.02-0.225-1.332,0.532-3.338
	c0.415-0.975,1.097-2.146,2.318-3.032c0.29-0.234,0.659-0.39,1.003-0.587c0.412-0.148,0.946-0.33,1.582-0.036
	c0.312,0.138,0.523,0.396,0.679,0.639c0.133,0.244,0.223,0.493,0.266,0.725c0.096,0.47,0.093,0.909,0.055,1.341
	c-0.087,0.862-0.303,1.651-0.667,2.4c-0.216,0.372-0.34,0.73-0.944,1.144c-0.284,0.167-0.62,0.242-0.925,0.139
	c-0.307-0.09-0.547-0.322-0.73-0.586c-0.711-1.178-1.351-2.088-2.068-2.669c-0.7-0.59-1.388-0.698-1.861-0.538
	C80.031,29.974,79.791,30.202,79.713,30.135z"/>
<path fill="#9B8579" d="M30.06,16.957c-0.096-0.053-0.059-0.5,0.558-0.978c0.306-0.228,0.819-0.415,1.404-0.338
	c0.596,0.061,1.132,0.384,1.654,0.767c0.495,0.404,0.974,0.898,1.395,1.466c0.207,0.277,0.464,0.619,0.561,0.78l0.201,0.306
	l0.1,0.154c0.023,0.034,0.017,0.016,0.026,0.025c0.024,0.015,0.055-0.015,0.058-0.04c0.003-0.012,0.003-0.022,0.003-0.029
	c0.022-0.056,0.098-0.23,0.154-0.392c0.231-0.667,0.399-1.443,0.447-2.198c0.023-0.375,0.015-0.743-0.039-1.037
	c-0.023-0.149-0.068-0.265-0.097-0.343c-0.017-0.032-0.011-0.028-0.014-0.034c0.013-0.005-0.016-0.046-0.309,0.095
	c-0.269,0.167-0.557,0.285-0.795,0.511c-1.012,0.787-1.671,1.889-2.152,2.84c-0.918,1.955-1.261,3.353-1.555,3.299
	c-0.217-0.03-0.371-1.489,0.307-3.797c0.375-1.127,0.983-2.521,2.278-3.687c0.299-0.309,0.707-0.538,1.102-0.788
	c0.086-0.063,0.219-0.121,0.365-0.173c0.13-0.055,0.286-0.102,0.473-0.127c0.343-0.072,0.788-0.017,1.138,0.155
	c0.362,0.181,0.644,0.507,0.826,0.839c0.149,0.297,0.237,0.582,0.288,0.849c0.104,0.535,0.108,1.031,0.08,1.52
	c-0.066,0.974-0.272,1.867-0.602,2.733c-0.089,0.219-0.168,0.422-0.336,0.716c-0.193,0.336-0.41,0.664-0.678,0.868
	c-0.486,0.475-1.262,0.456-1.727,0.081c-0.104-0.111-0.235-0.224-0.314-0.332l-0.18-0.318c-0.117-0.209-0.233-0.416-0.348-0.62
	c-0.247-0.456-0.393-0.678-0.557-0.956c-0.32-0.542-0.665-0.991-0.997-1.365c-0.687-0.746-1.32-0.928-1.82-0.774
	C30.451,16.778,30.172,17.041,30.06,16.957z"/>
<path fill="#9B8579" d="M80.816,36.314c0.393,0.02,0.527,2.432,0.626,6.22c0.025,0.939,0.053,1.966,0.082,3.065
	c0.004,0.274,0.008,0.554,0.012,0.838c0.023,0.301,0.046,0.606,0.069,0.917c0.039,0.624,0.06,1.274,0.028,1.972l-0.037,0.539
	c-0.035,0.257-0.039,0.421-0.122,0.757c-0.111,0.618-0.354,1.193-0.719,1.603c-0.355,0.407-0.919,0.665-1.482,0.653
	c-0.553-0.025-1.109-0.267-1.622-0.691c-0.548-0.465-0.892-0.893-1.106-1.162c-0.239-0.31-0.467-0.623-0.677-0.94
	c-0.426-0.634-0.809-1.283-1.175-1.946c-2.846-5.314-4.491-10.404-5.51-14.146c-0.987-3.751-1.212-6.161-0.855-6.248
	c0.371-0.093,1.246,2.116,2.678,5.642c1.45,3.502,3.38,8.435,6.064,13.44c0.341,0.616,0.689,1.215,1.051,1.768
	c0.179,0.279,0.364,0.54,0.548,0.79c0.216,0.279,0.322,0.398,0.287,0.367c0.002,0.016,0.032,0.055,0.059,0.037
	c0.013-0.007,0.023-0.019,0.034-0.035c0.001,0.028,0.027-0.134,0.039-0.192l0.051-0.413c0.057-0.566,0.077-1.153,0.08-1.729
	c0-0.289-0.001-0.574-0.001-0.855c0.02-0.298,0.038-0.592,0.057-0.881c0.089-1.148,0.173-2.22,0.249-3.2
	C79.92,38.611,80.461,36.296,80.816,36.314z"/>
<ellipse transform="matrix(-0.6723 -0.7402 0.7402 -0.6723 73.5474 103.8869)" fill="#9B8579" cx="59.766" cy="35.666" rx="1.062" ry="2.272"/>
<path fill="#9B8579" d="M27.322,55.522c-0.22-0.477,2.085-2.111,6.331-3.505c4.22-1.437,10.33-2.457,17.091-2.487
	c6.761,0.03,12.87,1.051,17.091,2.487c4.244,1.394,6.55,3.028,6.33,3.505c-0.238,0.549-2.825-0.088-7.002-0.704
	c-4.17-0.665-9.981-1.184-16.419-1.216c-6.438,0.032-12.249,0.551-16.419,1.216C30.147,55.434,27.56,56.071,27.322,55.522z"/>
<path fill="#9B8579" d="M69.503,26.706c-0.595-1.869-1.336-3.788-2.269-5.715c-0.464-0.965-0.973-1.933-1.537-2.903l-0.44-0.73
	c-0.163-0.249-0.273-0.468-0.543-0.801c-0.369-0.444-0.741-0.891-1.117-1.342c-3.023-3.585-7.137-6.772-12.106-8.702
	c-2.451-1.048-5.139-1.641-7.895-2.033c-2.773-0.323-5.642-0.273-8.521,0.129c-0.717,0.108-1.427,0.286-2.146,0.429l-1.078,0.229
	l-1.057,0.332c-0.702,0.231-1.42,0.428-2.115,0.695c-0.685,0.295-1.373,0.59-2.063,0.887c-2.716,1.329-5.285,2.858-7.651,5.043
	c-0.733,0.687-1.401,1.427-2.018,2.202l1.485,1.402l-2.3-0.308c-1.1,1.583-1.964,3.304-2.603,5.089l2.052,1.2l-2.521,0.239
	c-0.471,1.669-0.737,3.378-0.797,5.076l1.394,0.472l-1.393,0.427c0.003,0.312-0.006,0.625,0.011,0.936
	c0.145,2.995,0.923,5.903,2.216,8.479c0.354,0.626,0.707,1.249,1.057,1.869c0.41,0.58,0.818,1.157,1.224,1.73
	c0.914,1.13,1.948,2.18,3.128,2.997c2.344,1.657,5.092,2.566,7.785,2.686c2.694,0.149,5.329-0.5,7.548-1.673
	c0.543-0.318,1.098-0.606,1.584-0.987l0.743-0.546l0.72-0.639c0.913-0.897,1.634-1.95,2.133-3.066
	c1.005-2.238,1.113-4.7,0.511-6.828c-0.309-1.064-0.788-2.043-1.376-2.904l-0.46-0.625l-0.572-0.586
	c-0.359-0.409-0.818-0.691-1.258-0.978c-1.799-1.112-3.933-1.226-5.637-0.634c-0.415,0.181-0.847,0.308-1.21,0.543
	c-0.36,0.248-0.719,0.455-1.046,0.737c-0.673,0.598-1.134,1.35-1.387,2.121c-0.487,1.565-0.055,3.132,0.729,4.132
	c0.806,1.125,2.214,1.469,3.175,1.209c0.243-0.04,0.492-0.147,0.72-0.263c0.259-0.111,0.325-0.222,0.486-0.327
	c0.382-0.31,0.59-0.642,0.687-0.988c0.205-0.687,0.008-1.197-0.194-1.481c-0.192-0.259-0.341-0.308-0.397-0.282
	c-0.164,0.073,0.286,0.684-0.167,1.451c-0.089,0.181-0.298,0.351-0.468,0.438c-0.142,0.057-0.345,0.208-0.454,0.197
	c-0.122,0.023-0.237,0.062-0.404,0.059c-0.612,0.047-1.322-0.241-1.683-0.921c-0.426-0.71-0.567-1.69-0.197-2.578
	c0.196-0.436,0.495-0.833,0.897-1.136c0.213-0.154,0.495-0.278,0.738-0.431c0.253-0.146,0.557-0.188,0.832-0.3
	c1.152-0.311,2.528-0.129,3.598,0.643c0.259,0.201,0.542,0.375,0.74,0.655l0.339,0.374l0.308,0.475
	c0.39,0.648,0.695,1.363,0.878,2.128c0.35,1.53,0.185,3.254-0.569,4.764c-0.375,0.753-0.894,1.448-1.535,2.035l-0.506,0.416
	l-0.59,0.397c-0.383,0.287-0.824,0.485-1.246,0.72c-1.734,0.841-3.75,1.275-5.79,1.104c-2.039-0.144-4.084-0.885-5.803-2.152
	c-0.871-0.627-1.608-1.42-2.293-2.286c-0.326-0.478-0.654-0.958-0.983-1.441c-0.279-0.513-0.56-1.027-0.843-1.546
	c-1.024-2.124-1.627-4.502-1.72-6.946c-0.007-0.163,0.008-0.328,0.005-0.491l4.066-0.963l-3.985-0.944
	c0.108-1.117,0.313-2.231,0.634-3.323l4.789,0.117l-4.112-2.009c0.51-1.217,1.16-2.379,1.938-3.466l4.838,1.132l-3.529-2.738
	c0.281-0.306,0.554-0.618,0.859-0.905c0.503-0.414,0.958-0.857,1.489-1.252c0.548-0.383,1.094-0.766,1.638-1.147
	c0.526-0.412,1.133-0.687,1.701-1.021c0.582-0.31,1.13-0.683,1.745-0.914c0.6-0.263,1.198-0.524,1.793-0.785
	c0.604-0.237,1.231-0.407,1.841-0.616l0.918-0.3l0.94-0.205c0.626-0.128,1.244-0.294,1.871-0.395
	c2.513-0.373,5.022-0.451,7.461-0.206c2.421,0.314,4.799,0.781,6.973,1.666c4.417,1.606,8.122,4.32,10.928,7.432
	c0.351,0.392,0.698,0.78,1.042,1.165c0.091,0.08,0.251,0.337,0.39,0.537l0.419,0.641c0.547,0.866,1.054,1.747,1.521,2.625
	c0.939,1.756,1.709,3.514,2.346,5.224c1.256,3.425,1.928,6.683,2.075,9.563c0.173,2.884-0.148,5.377-0.599,7.373
	c-0.97,3.994-2.234,6.024-1.934,6.197c0.166,0.126,1.924-1.618,3.454-5.751c0.725-2.062,1.317-4.731,1.354-7.865
	C71.191,34.018,70.672,30.449,69.503,26.706z"/>
<path fill="#9B8579" d="M34.116,42.927c0,0,0.156,0.672,0.39,1.682c0.145,0.495,0.305,1.066,0.501,1.663
	c0.112,0.293,0.228,0.596,0.346,0.903c0.103,0.312,0.271,0.598,0.411,0.892c0.141,0.294,0.284,0.583,0.466,0.84
	c0.178,0.259,0.317,0.53,0.508,0.755c0.185,0.224,0.363,0.44,0.532,0.646c0.177,0.196,0.371,0.362,0.532,0.523
	c0.312,0.328,0.646,0.549,0.852,0.719c0.21,0.165,0.331,0.26,0.331,0.26l-2.087,2.153c0,0-0.114-0.154-0.314-0.425
	c-0.193-0.276-0.496-0.635-0.775-1.149c-0.143-0.252-0.311-0.511-0.456-0.806c-0.132-0.3-0.272-0.616-0.416-0.942
	c-0.145-0.323-0.226-0.684-0.341-1.03c-0.121-0.347-0.19-0.708-0.254-1.068c-0.062-0.359-0.152-0.711-0.17-1.064
	c-0.033-0.349-0.064-0.692-0.095-1.024c-0.031-0.665-0.03-1.282-0.036-1.802C34.085,43.617,34.116,42.927,34.116,42.927z"/>
</svg>
